name Walk5_EMG.mot
datacolumns 17
datarows 22
range 2.23400000 2.25500000
endheader
                time	            vasmed_r	            vaslat_r	            recfem_r	               gra_r	               sar_r	            tibant_r	           perlong_r	            addmag_r	           semimem_r	          bicfemlh_r	            gasmed_r	            gaslat_r	               sol_r	               tfl_r	              gmed_r	              gmax_r	
          2.23400000	          0.07906724	          0.11688667	          0.18950058	          0.26597362	          0.39134490	          0.26258688	          0.01961080	          0.19196611	          0.26240433	          0.21597536	          0.39986538	          0.07504865	          0.05230473	          0.23025483	          0.10087642	          0.20394796	
          2.23500000	          0.07906337	          0.11753912	          0.18954437	          0.27343596	          0.40642555	          0.25866917	          0.01962251	          0.19294242	          0.26980436	          0.21722976	          0.38611186	          0.07325547	          0.05153784	          0.22996745	          0.10132832	          0.20458551	
          2.23600000	          0.07909224	          0.11824387	          0.18953975	          0.28087044	          0.42241293	          0.25458191	          0.01964715	          0.19399886	          0.27723716	          0.21838541	          0.37248113	          0.07151898	          0.05073743	          0.22964732	          0.10182985	          0.20525452	
          2.23700000	          0.07915433	          0.11899628	          0.18948896	          0.28825644	          0.43923832	          0.25032543	          0.01968765	          0.19514068	          0.28469379	          0.21945085	          0.35901620	          0.06984390	          0.04990661	          0.22929856	          0.10237918	          0.20594690	
          2.23800000	          0.07925001	          0.11979125	          0.18939594	          0.29556912	          0.45682546	          0.24590135	          0.01974631	          0.19637101	          0.29216879	          0.22043361	          0.34575533	          0.06823397	          0.04904860	          0.22892320	          0.10297410	          0.20665538	
          2.23900000	          0.07937959	          0.12062316	          0.18926513	          0.30278075	          0.47509475	          0.24131269	          0.01982493	          0.19768990	          0.29965852	          0.22133969	          0.33273179	          0.06669186	          0.04816707	          0.22852154	          0.10361186	          0.20737431	
          2.24000000	          0.07954325	          0.12148634	          0.18909992	          0.30986298	          0.49396955	          0.23656405	          0.01992499	          0.19909505	          0.30715928	          0.22217384	          0.31997437	          0.06521930	          0.04726620	          0.22809226	          0.10428914	          0.20809985	
          2.24100000	          0.07974085	          0.12237521	          0.18890214	          0.31679055	          0.51337975	          0.23166170	          0.02004786	          0.20058362	          0.31466559	          0.22293915	          0.30750786	          0.06381755	          0.04635059	          0.22763302	          0.10500229	          0.20882981	
          2.24200000	          0.07997188	          0.12328427	          0.18867262	          0.32354394	          0.53326155	          0.22661318	          0.02019479	          0.20215268	          0.32216985	          0.22363668	          0.29535343	          0.06248816	          0.04542514	          0.22714162	          0.10574767	          0.20956230	
          2.24300000	          0.08023529	          0.12420785	          0.18841216	          0.33010880	          0.55355496	          0.22142699	          0.02036680	          0.20379826	          0.32966218	          0.22426542	          0.28352905	          0.06123348	          0.04449483	          0.22661680	          0.10652194	          0.21029388	
          2.24400000	          0.08052966	          0.12513998	          0.18812195	          0.33647305	          0.57419955	          0.21611245	          0.02056470	          0.20551469	          0.33713034	          0.22482238	          0.27204993	          0.06005633	          0.04356429	          0.22605783	          0.10732242	          0.21101921	
          2.24500000	          0.08085346	          0.12607434	          0.18780318	          0.34262466	          0.59513161	          0.21067982	          0.02078886	          0.20729473	          0.34456160	          0.22530274	          0.26092880	          0.05895917	          0.04263764	          0.22546378	          0.10814716	          0.21173177	
          2.24600000	          0.08120531	          0.12700439	          0.18745633	          0.34855130	          0.61628298	          0.20514037	          0.02103905	          0.20913012	          0.35194576	          0.22570058	          0.25017617	          0.05794392	          0.04171849	          0.22483353	          0.10899457	          0.21242480	
          2.24700000	          0.08158368	          0.12792319	          0.18708089	          0.35424038	          0.63757874	          0.19950635	          0.02131440	          0.21101267	          0.35927569	          0.22601010	          0.23980059	          0.05701197	          0.04081022	          0.22416603	          0.10986278	          0.21309140	
          2.24800000	          0.08198662	          0.12882333	          0.18667516	          0.35967878	          0.65893548	          0.19379066	          0.02161336	          0.21293450	          0.36654597	          0.22622684	          0.22980887	          0.05616410	          0.03991607	          0.22346029	          0.11074904	          0.21372410	
          2.24900000	          0.08241160	          0.12969708	          0.18623625	          0.36485274	          0.68026228	          0.18800659	          0.02193391	          0.21488811	          0.37375272	          0.22634823	          0.22020628	          0.05540044	          0.03903927	          0.22271512	          0.11164965	          0.21431519	
          2.25000000	          0.08285548	          0.13053659	          0.18576046	          0.36974817	          0.70146265	          0.18216750	          0.02227367	          0.21686716	          0.38089285	          0.22637328	          0.21099654	          0.05472058	          0.03818307	          0.22192884	          0.11256024	          0.21485798	
          2.25100000	          0.08331453	          0.13133393	          0.18524360	          0.37435092	          0.72243633	          0.17628666	          0.02263010	          0.21886718	          0.38796147	          0.22630202	          0.20218177	          0.05412361	          0.03735077	          0.22109954	          0.11347576	          0.21534814	
          2.25200000	          0.08378449	          0.13208135	          0.18468175	          0.37864691	          0.74308147	          0.17037712	          0.02300071	          0.22088478	          0.39495071	          0.22613528	          0.19376288	          0.05360842	          0.03654554	          0.22022631	          0.11439035	          0.21578424	
          2.25300000	          0.08426094	          0.13277180	          0.18407247	          0.38262283	          0.76329802	          0.16445161	          0.02338305	          0.22291619	          0.40185156	          0.22587476	          0.18573974	          0.05317398	          0.03577029	          0.21930990	          0.11529742	          0.21616694	
          2.25400000	          0.08473968	          0.13339954	          0.18341609	          0.38626712	          0.78299174	          0.15852255	          0.02377461	          0.22495643	          0.40865489	          0.22552261	          0.17811104	          0.05281984	          0.03502754	          0.21835181	          0.11619055	          0.21649751	
          2.25500000	          0.08521700	          0.13396071	          0.18271538	          0.38957031	          0.80207772	          0.15260216	          0.02417279	          0.22699934	          0.41535024	          0.22508096	          0.17087407	          0.05254653	          0.03431935	          0.21735294	          0.11706439	          0.21677748	
